<svg width="88" height="88" viewBox="0 0 88 88" xmlns="http://www.w3.org/2000/svg" xmlns:xlink="http://www.w3.org/1999/xlink"><title>lv1/icon/feature/firm</title><defs><path d="M15.908 34.669a1.65 1.65 0 1 1-.853-3.068l28.616-17.115a1.659 1.659 0 0 1 1.706 0L73.836 31.51c.602.28.98.86.98 1.508 0 .913-.741 1.652-1.658 1.652h-9.807v27.123h5.019c.915 0 1.658.74 1.658 1.651 0 .913-.742 1.652-1.658 1.652H20.678a1.654 1.654 0 0 1-1.658-1.652c0-.91.742-1.651 1.658-1.651h5.019V34.669h-9.789zm35.997 27.123h8.13V34.669h-8.13v27.123zm-11.447 0h8.131V34.669h-8.13v27.123zm-11.446 0h8.131V34.669h-8.13v27.123zm38.144-30.427L44.524 17.828 21.89 31.365h45.265zm-25.244-5.954a2.608 2.608 0 0 1 2.612-2.603 2.608 2.608 0 0 1 2.611 2.603 2.608 2.608 0 0 1-2.611 2.602 2.608 2.608 0 0 1-2.612-2.602zM73.14 67.497c.915 0 1.658.74 1.658 1.651 0 .913-.742 1.652-1.658 1.652H15.91a1.654 1.654 0 0 1-1.658-1.652c0-.912.742-1.651 1.657-1.651H73.14z" id="a"/></defs><g fill="none" fill-rule="evenodd"><mask id="b" fill="#fff"><use xlink:href="#a"/></mask><use fill="#FFF" fill-rule="nonzero" xlink:href="#a"/><g mask="url(#b)" fill="#D1B086"><path d="M0 0h88v88H0z"/></g></g></svg>