<svg width="88" height="88" viewBox="0 0 88 88" xmlns="http://www.w3.org/2000/svg" xmlns:xlink="http://www.w3.org/1999/xlink"><title>lv1/icon/feature/reward</title><defs><path d="M70.5 13c3.024 0 5.5 2.476 5.5 5.5v32c0 3.023-2.477 5.5-5.5 5.5H65v16.434c0 .585-.341 1.118-.874 1.364a1.506 1.506 0 0 1-1.603-.225l-5.69-4.879-.328-.28-6.022 5.22a1.496 1.496 0 0 1-1.607.23A1.502 1.502 0 0 1 48 72.5V56H18.5c-3.024 0-5.5-2.477-5.5-5.5v-32c0-3.024 2.476-5.5 5.5-5.5h52zM73 50.5v-32c0-1.376-1.124-2.5-2.5-2.5h-52a2.506 2.506 0 0 0-2.5 2.5v32c0 1.376 1.124 2.5 2.5 2.5h26.111v-.5c0-.117.01-.22.03-.316l.517-2.41.054-.25-1.824-2.017a1.501 1.501 0 0 1 0-2.014l1.652-1.828.172-.19-.571-2.66a1.499 1.499 0 0 1 1.006-1.741l2.346-.756.244-.079.836-2.592c.235-.73.99-1.166 1.743-1.006l2.409.518.25.054 2.018-1.824a1.499 1.499 0 0 1 2.013 0l1.829 1.652.19.172 2.66-.572a1.501 1.501 0 0 1 1.742 1.006l.757 2.348.079.244 2.59.835a1.498 1.498 0 0 1 1.006 1.74l-.517 2.411-.054.25 1.824 2.018a1.501 1.501 0 0 1 0 2.014l-1.652 1.828-.172.19.571 2.66c.02.095.03.198.03.315v.5H70.5c1.376 0 2.5-1.124 2.5-2.5zm-24.694-6.902c.102.47-.03.963-.354 1.32l-1.127 1.247-.303.335 1.43 1.581c.325.36.456.85.354 1.321l-.353 1.645-.095.442 2.03.655c.46.148.82.507.968.966l.517 1.6.14.431 2.083-.45a1.5 1.5 0 0 1 1.322.355l1.247 1.128.335.303 1.581-1.43c.36-.326.85-.458 1.322-.355l1.643.354.442.095.656-2.03c.147-.46.507-.82.967-.967l1.6-.516.43-.139-.447-2.086a1.5 1.5 0 0 1 .354-1.322l1.127-1.246.303-.335-1.43-1.581a1.497 1.497 0 0 1-.354-1.321l.353-1.643.095-.442-2.03-.655a1.501 1.501 0 0 1-.968-.966l-.517-1.603-.14-.43-2.084.45a1.496 1.496 0 0 1-1.321-.356l-1.247-1.127-.335-.303-1.581 1.43c-.36.325-.85.458-1.32.355l-1.645-.354-.442-.095-.656 2.032a1.501 1.501 0 0 1-.967.967l-1.6.516-.43.139.447 2.085zm9.17 21.698L62 69.173V58.32l-2.475-.532-2.018 1.826c-.28.252-.636.387-1.007.387-.37 0-.728-.135-1.007-.387l-1.828-1.654-.19-.172L51 58.32v10.897l4.518-3.916a1.5 1.5 0 0 1 1.959-.004zM24.413 22.992L64.508 23a1.5 1.5 0 0 1-.008 3l-.5.002L25 26h-.5a1.5 1.5 0 0 1 0-3l-.088-.008zM46 32.502a1.5 1.5 0 0 1-1.5 1.5h-20a1.5 1.5 0 0 1 0-3h20c.83 0 1.5.67 1.5 1.5zm-8 8a1.5 1.5 0 0 1-1.5 1.5h-12a1.5 1.5 0 0 1 0-3h12a1.5 1.5 0 0 1 1.5 1.5zM53 46.5c0-1.93 1.57-3.5 3.5-3.5s3.5 1.57 3.5 3.5-1.57 3.5-3.5 3.5-3.5-1.57-3.5-3.5z" id="a"/></defs><g fill="none" fill-rule="evenodd"><mask id="b" fill="#fff"><use xlink:href="#a"/></mask><use fill="#FFF" fill-rule="nonzero" xlink:href="#a"/><g mask="url(#b)" fill="#D1B086"><path d="M0 0h88v88H0z"/></g></g></svg>