<svg width="88" height="88" viewBox="0 0 88 88" xmlns="http://www.w3.org/2000/svg" xmlns:xlink="http://www.w3.org/1999/xlink"><title>lv1/icon/feature/price</title><defs><path d="M74.278 23.188h.254v37.28c0 4.968-10.45 8.22-23.731 8.22-.32 0-.578-.007-1.168-.028a60.93 60.93 0 0 0-.617-.02l-.207-.005-.15.143A20.725 20.725 0 0 1 34.326 74.5c-11.497.006-20.825-9.319-20.826-20.81 0-8.645 5.327-16.296 13.252-19.39l.318-.125V23.188h.254l-.147-.617a3.651 3.651 0 0 1-.107-.852c0-4.968 10.45-8.219 23.731-8.219 13.28 0 23.73 3.251 23.73 8.219 0 .276-.035.559-.106.852l-.147.616zM50.8 27.063c11.374 0 20.854-2.857 20.854-5.344 0-2.488-9.48-5.344-20.854-5.344-11.374 0-20.854 2.856-20.854 5.344 0 2.487 9.48 5.343 20.854 5.343zm20.854 4.343v-5.5l-.739.401c-4.261 2.316-11.93 3.63-20.115 3.63-8.185 0-15.854-1.314-20.115-3.63l-.739-.401v5.5c0 .535.456 1.048 1.26 1.579l.156.103.186-.025c.94-.126 1.864-.19 2.777-.188a20.705 20.705 0 0 1 11.779 3.649l.114.078.138.008c1.463.092 2.937.14 4.444.14 11.374 0 20.854-2.856 20.854-5.344zm0 9.688v-5.5l-.739.4c-4.261 2.316-11.93 3.631-20.115 3.631h-1.088l.676.818a20.809 20.809 0 0 1 3.3 5.593l.131.332.357-.016c9.687-.453 17.478-3.074 17.478-5.258zm0 9.687v-5.5l-.739.401c-3.455 1.878-9.138 3.102-15.682 3.493l-.567.034.106.559c.248 1.299.374 2.607.374 3.921 0 .548-.026 1.114-.077 1.72l-.048.58.58-.04c8.97-.609 16.053-3.109 16.053-5.168zm0 9.688v-5.5l-.739.4c-3.523 1.915-9.37 3.151-16.073 3.52l-.358.02-.096.346a20.698 20.698 0 0 1-2.599 5.763l-.514.79.943-.018c10.666-.204 19.436-2.964 19.436-5.321zM45.132 39.396a18.022 18.022 0 0 0-4.565-2.505l-.211-.079a12.63 12.63 0 0 0-.33-.12c-.25-.083-.493-.156-.86-.26a16.645 16.645 0 0 0-.785-.202c-.322-.075-.533-.12-.754-.162a15.864 15.864 0 0 0-1.019-.155l-.154-.022a8.623 8.623 0 0 0-.449-.056 17.756 17.756 0 0 0-1.687-.085c-1.226 0-2.44.123-3.626.366a3.386 3.386 0 0 0-.222.056 2.644 2.644 0 0 1-.133.035c-.646.147-1.292.335-1.948.564-.08.03-.132.05-.254.094a18.07 18.07 0 0 0-1.788.767c-6.06 3.012-9.975 9.18-9.975 16.056.005 9.908 8.037 17.935 17.948 17.937a17.87 17.87 0 0 0 8.975-2.42 18.032 18.032 0 0 0 4.46-3.65 17.883 17.883 0 0 0 3.958-7.51l.048-.18a13.862 13.862 0 0 0 .2-.942c.086-.46.148-.852.193-1.256.075-.683.114-1.338.114-1.98a17.877 17.877 0 0 0-1.03-5.937l-.048-.134-.048-.128a17.89 17.89 0 0 0-.771-1.788 17.99 17.99 0 0 0-5.102-6.2l-.137-.104zm-10.346 12.93a31.97 31.97 0 0 1 1.72.617c2.729 1.084 4.102 2.419 4.102 4.62a6.29 6.29 0 0 1-4.515 6.023l-.416.122.062.43.013.087c.007.053.01.089.01.12v1.937a1.437 1.437 0 1 1-2.877 0v-1.938c0-.028.003-.063.01-.117l.014-.09.063-.43-.417-.122a6.289 6.289 0 0 1-4.516-6.022 1.439 1.439 0 0 1 2.877 0 3.41 3.41 0 0 0 3.408 3.406 3.41 3.41 0 0 0 3.407-3.406c0-1.037-.916-1.513-3.87-2.514a32.765 32.765 0 0 1-1.72-.617c-2.728-1.084-4.102-2.419-4.102-4.619a6.292 6.292 0 0 1 4.516-6.024l.418-.122-.069-.462a1.154 1.154 0 0 1-.019-.173v-1.938a1.439 1.439 0 0 1 2.877 0v1.938c0 .042-.004.083-.023.204l-.064.43.418.123a6.293 6.293 0 0 1 4.515 6.024 1.437 1.437 0 1 1-2.877 0 3.41 3.41 0 0 0-3.407-3.406 3.41 3.41 0 0 0-3.408 3.406c0 1.036.916 1.512 3.87 2.513z" id="a"/></defs><g fill="none" fill-rule="evenodd"><mask id="b" fill="#fff"><use xlink:href="#a"/></mask><use fill="#FFF" fill-rule="nonzero" xlink:href="#a"/><g mask="url(#b)" fill="#D1B086"><path d="M0 0h88v88H0z"/></g></g></svg>