<svg width="88" height="88" viewBox="0 0 88 88" xmlns="http://www.w3.org/2000/svg" xmlns:xlink="http://www.w3.org/1999/xlink"><title>lv1/icon/feature/bengoshi</title><defs><path d="M55.13 12c-.532 0-.972.228-1.434.413-.256-.01-.517.06-.74.196l-13.923 8.353a1.44 1.44 0 0 0-.506.533c-.853.76-1.484 1.793-1.484 3.027 0 2.288 1.886 4.174 4.174 4.174.337 0 .636-.098.93-.218l3.016 4.973-30.098 16.707c-.212.12-.391.293-.516.505-1.467 1-2.549 2.56-2.549 4.467 0 3.06 2.505 5.566 5.565 5.566.843 0 1.57-.354 2.288-.69.277 0 .55-.077.777-.229l28.87-19.18 3.43 5.642c-.348.57-.582 1.212-.582 1.935 0 2.288 1.886 4.174 4.174 4.174.538 0 .989-.24 1.456-.43.261.011.522-.06.745-.195l13.69-8.234a4.184 4.184 0 0 0 2.196-3.663c0-2.288-1.886-4.174-4.174-4.174-.517 0-.946.218-1.392.391L58.478 18.641a4.14 4.14 0 0 0 .826-2.467c0-2.288-1.886-4.174-4.174-4.174zm0 2.783c.788 0 1.392.603 1.392 1.39 0 .534-.294.974-.74 1.218a.145.145 0 0 0-.054.033L43.125 25l.054.087-.663.408a1.287 1.287 0 0 0-.56.2 1.38 1.38 0 0 1-.739.218 1.367 1.367 0 0 1-1.39-1.391c0-.506.26-.924.662-1.174.62-.386.837-1.18.506-1.826l.635 1.125 12.63-7.57c.05-.028.099-.05.148-.077a1.34 1.34 0 0 1 .722-.217zm1.153 5.608l10.195 16.783-11.543 7.005-3.783-6.228a.088.088 0 0 1-.022-.038l-2.842-4.674-3.549-5.842 11.544-7.006zm-9.674 15.44l1.45 2.386-28.885 19.185a.927.927 0 0 0-.076.05 2.753 2.753 0 0 1-1.533.461 2.76 2.76 0 0 1-2.782-2.783c0-1.108.64-2.038 1.576-2.489a2.1 2.1 0 0 0 .233-.146L46.61 35.832zm23.826 2.604c.788 0 1.391.603 1.391 1.391 0 .533-.293.973-.739 1.217a.254.254 0 0 0-.054.028l-12.604 7.581.729 1.103a1.387 1.387 0 0 0-1.897-.407 1.38 1.38 0 0 1-.74.217 1.367 1.367 0 0 1-1.39-1.391c0-.506.26-.924.662-1.174.125-.076.234-.174.327-.283l.788-.478.027.06 12.63-7.576c.05-.022.098-.044.147-.07a1.34 1.34 0 0 1 .723-.218zM46.783 67.652c-2.288 0-4.174 1.886-4.174 4.174V76H76v-4.174c0-2.288-1.886-4.174-4.174-4.174H46.783zm0 2.783h25.043c.788 0 1.391.603 1.391 1.391v1.391H45.391v-1.39c0-.789.604-1.392 1.392-1.392z" id="a"/></defs><g fill="none" fill-rule="evenodd"><mask id="b" fill="#fff"><use xlink:href="#a"/></mask><use fill="#D1B086" fill-rule="nonzero" xlink:href="#a"/><g mask="url(#b)" fill="#D1B086"><path d="M0 0h88v88H0z"/></g></g></svg>